<svg width="68" height="58" viewBox="0 0 68 58" fill="none" xmlns="http://www.w3.org/2000/svg">
<path id="Vector" d="M68 28.971C68 12.9775 52.768 0 34 0C15.232 0 0 12.9775 0 28.971C0 37.7797 4.692 45.7185 12.036 51.0472C12.104 51.1052 12.172 51.1053 12.172 51.1632C12.784 51.5693 13.396 51.9752 14.076 52.3812C14.416 52.5552 14.688 52.7836 15.028 53.0156C20.6491 56.2609 27.2803 57.9968 34.068 58C40.8557 57.9968 47.4869 56.2609 53.108 53.0156C53.448 52.8416 53.72 52.6133 54.06 52.4356C54.672 52.0332 55.352 51.6273 55.964 51.2212C56.032 51.1632 56.1 51.1632 56.1 51.1052C63.308 45.7149 68 37.7797 68 28.971ZM34 54.3496C27.608 54.3496 21.76 52.6096 16.932 49.7132C17 49.2492 17.136 48.7889 17.272 48.3249C17.6785 47.0678 18.2727 45.8604 19.04 44.7325C19.788 43.6305 20.672 42.6445 21.76 41.7745C22.78 40.9045 24.004 40.0961 25.228 39.4581C26.52 38.8201 27.88 38.3561 29.376 38.0081C30.8841 37.6636 32.4387 37.4893 34 37.4897C38.6357 37.4598 43.1015 38.9767 46.444 41.7165C48.008 43.0505 49.232 44.6153 50.116 46.4109C50.592 47.4549 50.932 48.5557 51.136 49.7132C46.1175 52.7226 40.1346 54.3413 34 54.3496ZM23.596 27.5246C22.9981 26.3542 22.6968 25.0893 22.712 23.8126C22.712 22.5402 22.984 21.2642 23.596 20.1042C24.208 18.9443 25.024 17.9039 26.044 17.0339C27.064 16.1639 28.288 15.4715 29.648 14.9495C31.008 14.4275 32.504 14.1955 34 14.1955C35.564 14.1955 36.992 14.4275 38.352 14.9495C39.712 15.4715 40.936 16.1675 41.956 17.0339C42.976 17.9039 43.792 18.9479 44.404 20.1042C45.016 21.2642 45.288 22.5402 45.288 23.8126C45.288 25.1466 45.016 26.3646 44.404 27.521C43.8167 28.6654 42.9868 29.7076 41.956 30.595C40.9152 31.4729 39.6934 32.1796 38.352 32.6794C35.5416 33.6624 32.3904 33.6624 29.58 32.6794C28.2386 32.1796 27.0168 31.4729 25.976 30.595C24.9443 29.7201 24.1342 28.6775 23.596 27.5246ZM55.148 46.7589C55.148 46.6429 55.08 46.5849 55.08 46.4689C54.4124 44.6538 53.4266 42.9355 52.156 41.3721C50.8844 39.7973 49.3229 38.408 47.532 37.2577C46.1637 36.3795 44.6805 35.6399 43.112 35.0537C43.8222 34.6485 44.4829 34.1834 45.084 33.6654C46.0978 32.8117 46.9881 31.8576 47.736 30.8234C49.2472 28.7148 50.0254 26.2836 49.98 23.8126C50.0022 21.9838 49.5857 20.1704 48.756 18.4839C47.9379 16.8586 46.7604 15.3829 45.288 14.1375C43.8142 12.9088 42.0846 11.9253 40.188 11.2375C38.2078 10.5301 36.0787 10.176 33.932 10.1971C31.785 10.1772 29.6559 10.5325 27.676 11.2411C25.7586 11.9206 24.0234 12.9257 22.576 14.1955C21.1279 15.446 19.9739 16.9213 19.176 18.5419C18.3463 20.2284 17.9298 22.0418 17.952 23.8706C17.952 25.1466 18.156 26.3634 18.564 27.521C18.972 28.739 19.516 29.841 20.264 30.8814C20.944 31.9254 21.896 32.8534 22.916 33.7234C23.528 34.2454 24.208 34.7082 24.956 35.1117C23.3805 35.71 21.8963 36.4696 20.536 37.3737C18.768 38.5337 17.204 39.9221 15.912 41.4301C14.6297 42.9876 13.6429 44.7076 12.988 46.5269C12.92 46.6429 12.92 46.7589 12.92 46.8169C7.548 42.1805 4.216 35.9237 4.216 28.971C4.216 15.0075 17.612 3.59237 34 3.59237C50.388 3.59237 63.784 15.0075 63.784 28.971C63.7751 35.6408 60.6701 42.0363 55.148 46.7589Z" fill="white"/>
</svg>
