<svg width="156" height="141" viewBox="0 0 156 141" fill="none" xmlns="http://www.w3.org/2000/svg">
<path id="Vector" d="M156 70.4295C156 31.5487 121.056 0 78 0C34.944 0 0 31.5487 0 70.4295C0 91.8439 10.764 111.143 27.612 124.098C27.768 124.239 27.924 124.239 27.924 124.38C29.328 125.367 30.732 126.354 32.292 127.341C33.072 127.764 33.696 128.319 34.476 128.883C47.3714 136.772 62.5842 140.992 78.156 141C93.7278 140.992 108.941 136.772 121.836 128.883C122.616 128.46 123.24 127.905 124.02 127.473C125.424 126.495 126.984 125.508 128.388 124.521C128.544 124.38 128.7 124.38 128.7 124.239C145.236 111.134 156 91.8439 156 70.4295ZM78 132.126C63.336 132.126 49.92 127.896 38.844 120.855C39 119.727 39.312 118.607 39.624 117.479C40.5566 114.423 41.9198 111.488 43.68 108.746C45.396 106.067 47.424 103.67 49.92 101.555C52.26 99.4402 55.068 97.4751 57.876 95.9241C60.84 94.3731 63.96 93.2451 67.392 92.3991C70.8518 91.5615 74.4182 91.1378 78 91.1389C88.6348 91.0661 98.8798 94.7536 106.548 101.414C110.136 104.657 112.944 108.461 114.972 112.826C116.064 115.364 116.844 118.04 117.312 120.855C105.799 128.17 92.0735 132.106 78 132.126ZM54.132 66.9133C52.7603 64.068 52.0692 60.9928 52.104 57.8893C52.104 54.7961 52.728 51.6941 54.132 48.8741C55.536 46.0541 57.408 43.5249 59.748 41.4099C62.088 39.2949 64.896 37.6118 68.016 36.3428C71.136 35.0737 74.568 34.5097 78 34.5097C81.588 34.5097 84.864 35.0737 87.984 36.3428C91.104 37.6118 93.912 39.3037 96.252 41.4099C98.592 43.5249 100.464 46.0629 101.868 48.8741C103.272 51.6941 103.896 54.7961 103.896 57.8893C103.896 61.1323 103.272 64.0933 101.868 66.9045C100.521 69.6867 98.6169 72.2201 96.252 74.3775C93.8643 76.5118 91.0614 78.2296 87.984 79.4447C81.5365 81.8344 74.3075 81.8344 67.86 79.4447C64.7826 78.2296 61.9797 76.5118 59.592 74.3775C57.2251 72.2506 55.3668 69.7159 54.132 66.9133ZM126.516 113.672C126.516 113.39 126.36 113.249 126.36 112.967C124.828 108.555 122.567 104.378 119.652 100.577C116.735 96.7486 113.153 93.3711 109.044 90.5749C105.905 88.4398 102.502 86.6418 98.904 85.2169C100.533 84.2317 102.049 83.1009 103.428 81.8417C105.754 79.7664 107.796 77.4469 109.512 74.9327C112.979 69.8067 114.764 63.8964 114.66 57.8893C114.711 53.4433 113.755 49.0349 111.852 44.9349C109.975 40.9839 107.274 37.3965 103.896 34.3688C100.515 31.3817 96.547 28.9909 92.196 27.3187C87.6532 25.599 82.7689 24.7383 77.844 24.7896C72.9185 24.7411 68.0341 25.6048 63.492 27.3276C59.0932 28.9793 55.1124 31.4229 51.792 34.5097C48.47 37.5498 45.8224 41.1364 43.992 45.0759C42.0886 49.1759 41.133 53.5843 41.184 58.0303C41.184 61.1323 41.652 64.0904 42.588 66.9045C43.524 69.8655 44.772 72.5445 46.488 75.0737C48.048 77.6117 50.232 79.8677 52.572 81.9827C53.976 83.2517 55.536 84.3767 57.252 85.3579C53.6376 86.8122 50.2326 88.6588 47.112 90.8569C43.056 93.6769 39.468 97.0521 36.504 100.718C33.5622 104.504 31.2984 108.686 29.796 113.108C29.64 113.39 29.64 113.672 29.64 113.813C17.316 102.542 9.672 87.3319 9.672 70.4295C9.672 36.4837 40.404 8.73319 78 8.73319C115.596 8.73319 146.328 36.4837 146.328 70.4295C146.308 86.6441 139.184 102.192 126.516 113.672Z" fill="#163F5C"/>
</svg>
