<svg width="76" height="73" viewBox="0 0 76 73" fill="none" xmlns="http://www.w3.org/2000/svg">
<g id="Mask group">
<mask id="mask0_144_3572" style="mask-type:luminance" maskUnits="userSpaceOnUse" x="0" y="0" width="76" height="73">
<g id="Group">
<path id="Vector" d="M76 0H0V73H76V0Z" fill="white"/>
</g>
</mask>
<g mask="url(#mask0_144_3572)">
<g id="Group_2">
<path id="Vector_2" fill-rule="evenodd" clip-rule="evenodd" d="M43.4245 15.6467C43.4245 24.3034 36.1389 31.2842 27.1462 31.2842C18.1534 31.2842 10.8585 24.3034 10.8585 15.6467C10.8585 6.9899 18.1534 0 27.1462 0C36.1389 0 43.4245 6.9899 43.4245 15.6467ZM32.8459 65.1854H2.71454C1.22196 65.1854 0 64.0387 0 62.5779C0 48.1858 12.1551 36.5 27.1462 36.5C39.0121 36.5 49.1057 43.8034 52.7905 54.0195L52.3801 54.5931L49.1151 52.5142C44.3295 49.1716 37.6408 50.1663 34.0866 54.7008C31.6518 57.8283 31.316 61.8428 32.8459 65.1854ZM75.1884 47.9705C76.5317 46.2499 76.1679 43.8035 74.3675 42.4952C72.5671 41.1958 70.0204 41.5631 68.6677 43.2837L54.1711 63.6172L45.225 57.8281C43.4152 56.5287 40.8685 56.8872 39.5252 58.6078C38.1726 60.3284 38.5364 62.7838 40.3368 64.0832L52.5479 72.2203C53.4155 72.8476 54.4976 73.1073 55.5704 72.9549C56.6338 72.7936 57.604 72.2739 58.2477 71.4405L75.1884 47.9705Z" fill="#4F94C5"/>
</g>
</g>
</g>
</svg>
