<svg width="73" height="73" viewBox="0 0 73 73" fill="none" xmlns="http://www.w3.org/2000/svg">
<g id="Mask group">
<mask id="mask0_144_3566" style="mask-type:luminance" maskUnits="userSpaceOnUse" x="0" y="0" width="73" height="73">
<g id="Group">
<path id="Vector" d="M73 0H0V73H73V0Z" fill="white"/>
</g>
</mask>
<g mask="url(#mask0_144_3566)">
<g id="Group_2">
<path id="Vector_2" fill-rule="evenodd" clip-rule="evenodd" d="M23.4583 5.21552C23.4583 2.33889 21.1285 0 18.2433 0C15.367 0 13.0374 2.33889 13.0374 5.21552V10.4311H7.82237C3.50348 10.4311 0 13.9351 0 18.2455V26.0688H73V18.2455C73 13.9351 69.4876 10.4311 65.1776 10.4311H59.9627V5.21552C59.9627 2.33889 57.624 0 54.7478 0C51.8715 0 49.5329 2.33889 49.5329 5.21552V10.4311H23.4583V5.21552ZM73 32.5928H0V65.1767C0 69.4961 3.50348 73 7.82237 73H65.1776C69.4876 73 73 69.4961 73 65.1767V32.5928Z" fill="#4F94C5"/>
</g>
</g>
</g>
</svg>
