<svg width="53" height="73" viewBox="0 0 53 73" fill="none" xmlns="http://www.w3.org/2000/svg">
<path id="Vector" fill-rule="evenodd" clip-rule="evenodd" d="M15.9312 10.6368L15.2756 12.5094C13.3011 15.4842 11.1927 18.8443 9.23657 22.3478C6.62193 27.034 4.02864 32.4011 2.54385 37.6607C-0.413129 27.4102 -0.182275 14.0684 0.266751 6.59554C0.470413 3.21751 3.27703 0.547543 6.90028 0.0726488C11.3178 -0.500809 15.3852 2.38431 15.9312 6.47916V10.6368ZM45.149 52.051C46.1809 51.827 47.1797 51.3879 48.0545 50.7249C51.125 48.4221 51.3616 43.1536 48.8624 40.3221C44.4264 35.2865 37.8744 32.7864 31.3543 33.0104C30.5658 33.091 29.7482 33.2074 28.9442 33.3687C27.184 33.7092 25.7933 34.1752 25.1057 34.5246C23.393 35.3759 21.2526 34.7937 20.3245 33.2077C19.3964 31.6218 20.0326 29.6503 21.7453 28.7901C23.2427 28.0464 25.3482 27.4105 27.475 26.9893C29.6241 26.5682 32.103 26.3081 34.4034 26.4604L39.9168 15.8695C41.7003 12.0972 39.7868 7.69761 35.6729 6.11165C32.2931 4.81241 28.4031 5.79807 26.3694 8.6116C20.7765 16.3354 8.99798 33.387 8.3579 44.9278C7.71007 56.5851 8.01268 66.2532 8.22022 70.563C8.28617 71.934 9.512 73 10.9968 73H37.7783C38.3253 73 38.8732 72.9283 39.3921 72.7581C41.7342 72.0233 43.9687 70.8856 45.9947 69.3713C49.0428 67.0774 51.2375 64.1563 52.5361 60.9754C53.9355 57.5526 52.0618 53.7355 48.3542 52.4452C47.2991 52.0689 46.2041 51.9524 45.149 52.051ZM27.4459 57.9736C24.9447 55.1422 25.4064 50.9668 28.4758 48.655C31.5463 46.3433 36.0627 46.7734 38.5629 49.6049C40.1369 51.3879 42.5072 52.2212 44.8154 52.0151C42.5586 52.499 40.5889 53.9775 39.7141 56.1369C39.2845 57.1853 38.5629 58.1529 37.5359 58.9234C34.4654 61.2352 29.947 60.814 27.4459 57.9736Z" fill="#4F94C5"/>
</svg>
